<svg xmlns="http://www.w3.org/2000/svg" version="1.0" width="280.000000pt" height="280.000000pt" viewBox="0 0 280.000000 280.000000" preserveAspectRatio="xMidYMid meet">

<g transform="translate(0.000000,280.000000) scale(0.100000,-0.100000)" fill="#000000" stroke="none">
<path d="M80 2515 l0 -205 205 0 205 0 0 205 0 205 -205 0 -205 0 0 -205z m350 0 l0 -145 -145 0 -145 0 0 145 0 145 145 0 145 0 0 -145z"/>
<path d="M200 2515 l0 -85 85 0 85 0 0 85 0 85 -85 0 -85 0 0 -85z"/>
<path d="M550 2690 c0 -27 3 -30 30 -30 27 0 30 -3 30 -30 0 -27 -3 -30 -30 -30 -30 0 -30 -1 -30 -54 0 -52 1 -55 28 -58 21 -2 28 -9 30 -30 3 -25 0 -28 -27 -28 l-31 0 0 -90 0 -90 -60 0 -60 0 0 -30 0 -30 60 0 60 0 0 -30 0 -30 -60 0 c-57 0 -60 -1 -60 -25 0 -22 -4 -24 -57 -27 -55 -3 -58 -4 -61 -30 -3 -22 -9 -28 -28 -28 -23 0 -24 -3 -24 -60 l0 -60 -30 0 -30 0 0 -90 0 -90 -30 0 -30 0 0 60 0 60 -30 0 -30 0 0 -60 0 -60 30 0 c27 0 30 -3 30 -31 0 -27 3 -30 28 -27 21 2 28 9 30 31 l3 27 85 0 84 0 0 -30 c0 -30 -1 -30 -55 -30 l-55 0 0 -55 c0 -54 0 -55 -29 -55 -25 0 -30 4 -33 28 -2 21 -9 28 -30 30 -28 3 -28 3 -28 -57 l0 -61 -30 0 c-27 0 -30 -3 -30 -30 l0 -30 60 0 60 0 0 -30 c0 -27 -3 -30 -30 -30 -27 0 -30 -3 -30 -30 0 -27 3 -30 30 -30 27 0 30 -3 30 -30 0 -30 1 -30 55 -30 l55 0 0 -115 0 -115 -85 0 -85 0 0 60 0 60 30 0 c25 0 30 4 30 25 0 21 -5 25 -30 25 -27 0 -30 3 -30 30 0 27 -3 30 -30 30 -27 0 -30 -3 -30 -30 0 -27 3 -30 30 -30 25 0 30 -4 30 -25 0 -21 -5 -25 -30 -25 l-30 0 0 -120 0 -120 30 0 30 0 0 -91 0 -90 28 3 c21 2 28 9 30 30 3 21 9 27 30 30 21 2 28 9 30 31 3 21 9 27 27 27 18 0 24 -6 27 -27 2 -22 9 -29 31 -31 23 -3 27 -8 27 -33 0 -26 -3 -29 -30 -29 -25 0 -30 -4 -30 -25 0 -25 -1 -25 -85 -25 l-85 0 0 -30 c0 -27 -3 -30 -30 -30 -27 0 -30 -3 -30 -30 0 -27 3 -30 30 -30 27 0 30 3 30 30 l0 31 58 -3 c54 -3 57 -4 60 -30 3 -27 6 -28 58 -28 l54 0 0 85 0 85 30 0 c25 0 30 -4 30 -25 0 -21 5 -25 30 -25 25 0 30 4 30 25 0 21 5 25 30 25 l30 0 0 -85 0 -85 60 0 60 0 0 -30 0 -30 85 0 85 0 0 -30 0 -30 -61 0 c-60 0 -60 0 -57 -28 3 -27 3 -27 91 -30 l87 -3 0 -54 c0 -54 0 -55 30 -55 27 0 30 -3 30 -30 0 -28 -1 -29 -57 -32 -55 -3 -58 -4 -61 -30 -3 -28 -3 -28 57 -28 l61 0 0 -30 0 -30 91 0 90 0 -3 27 c-3 27 -6 28 -60 31 -57 3 -58 4 -58 32 0 27 3 30 30 30 27 0 30 3 30 30 0 27 3 30 30 30 30 0 30 1 30 55 0 54 0 55 -30 55 -30 0 -30 -1 -30 -55 l0 -55 -60 0 c-57 0 -60 1 -60 25 0 21 5 25 30 25 27 0 30 3 30 30 l0 30 -60 0 -60 0 0 30 c0 27 3 30 30 30 l30 0 0 60 0 60 60 0 60 0 0 -30 c0 -27 -3 -30 -30 -30 -27 0 -30 -3 -30 -30 0 -27 3 -30 30 -30 27 0 30 3 30 30 0 27 3 30 30 30 27 0 30 -3 30 -30 0 -30 1 -30 55 -30 54 0 55 0 55 -30 0 -27 -3 -30 -30 -30 -30 0 -30 -1 -30 -55 0 -54 0 -55 30 -55 l30 0 0 -60 0 -60 30 0 c27 0 30 -3 30 -30 l0 -30 90 0 90 0 0 30 0 30 -60 0 -60 0 0 60 0 60 30 0 c25 0 30 4 30 25 0 21 5 25 30 25 25 0 30 -4 30 -25 0 -22 4 -24 58 -27 54 -3 57 -4 60 -31 3 -24 0 -27 -27 -27 -28 0 -31 -3 -31 -30 0 -30 1 -30 54 -30 52 0 55 1 58 27 2 22 9 29 31 31 27 3 27 3 27 -57 l0 -61 30 0 c27 0 30 3 30 30 l0 30 60 0 60 0 0 -30 c0 -27 3 -30 30 -30 27 0 30 3 30 30 0 27 3 30 30 30 27 0 30 -3 30 -30 l0 -30 85 0 85 0 0 60 0 60 -30 0 c-30 0 -30 1 -30 55 0 54 0 55 30 55 25 0 30 -4 30 -25 0 -24 3 -25 60 -25 57 0 60 1 60 25 0 25 1 25 90 25 89 0 90 0 90 -25 0 -24 -3 -25 -60 -25 l-60 0 0 -30 0 -30 -60 0 -60 0 0 -30 0 -30 90 0 90 0 0 -30 c0 -30 1 -30 55 -30 54 0 55 0 55 30 0 27 3 30 30 30 27 0 30 -3 30 -30 0 -27 3 -30 30 -30 27 0 30 3 30 30 0 27 -3 30 -30 30 l-30 0 0 85 0 85 -55 0 c-54 0 -55 0 -55 30 0 30 1 30 55 30 54 0 55 0 55 30 l0 30 60 0 60 0 0 30 0 30 -60 0 -60 0 0 -30 c0 -30 -1 -30 -55 -30 -54 0 -55 0 -55 30 0 25 4 30 24 30 19 0 25 6 28 28 2 21 9 28 31 30 23 3 27 8 27 33 0 26 -3 29 -31 29 -27 0 -30 3 -27 28 3 26 6 27 61 30 l57 3 0 -31 c0 -27 3 -30 30 -30 27 0 30 3 30 30 0 27 -3 30 -30 30 -30 0 -30 1 -30 55 0 54 0 55 -30 55 -27 0 -30 -3 -30 -30 0 -30 -1 -30 -55 -30 -52 0 -55 -1 -55 -25 0 -21 -5 -25 -30 -25 -27 0 -30 -3 -30 -30 0 -27 -3 -30 -30 -30 -27 0 -30 3 -30 30 l0 30 -60 0 -60 0 0 -30 c0 -27 -3 -30 -30 -30 l-30 0 0 84 0 85 -27 3 c-22 2 -29 9 -31 30 -3 22 -9 28 -27 28 -18 0 -24 -6 -27 -28 -3 -26 -6 -27 -60 -30 -57 -3 -58 -4 -58 -32 0 -30 0 -30 60 -30 57 0 60 -1 60 -25 0 -21 -5 -25 -30 -25 -27 0 -30 -3 -30 -30 l0 -30 -60 0 -60 0 0 -60 0 -60 30 0 c27 0 30 3 30 30 0 27 3 30 30 30 27 0 30 3 30 30 0 27 3 30 30 30 l31 0 -3 -87 -3 -88 -57 -3 c-57 -3 -58 -4 -58 -32 l0 -30 85 0 85 0 0 -30 c0 -25 -4 -30 -25 -30 -20 0 -25 -5 -25 -25 0 -21 -5 -25 -30 -25 -25 0 -30 4 -30 25 0 24 -3 25 -60 25 l-60 0 0 60 0 60 -30 0 c-27 0 -30 -3 -30 -30 0 -27 -3 -30 -30 -30 l-30 0 0 60 0 60 -30 0 -30 0 0 60 0 60 30 0 c27 0 30 3 30 30 l0 30 60 0 60 0 0 55 0 55 -60 0 -60 0 0 60 0 60 -30 0 -30 0 0 90 0 90 -30 0 c-27 0 -30 3 -30 30 0 25 -4 30 -25 30 -20 0 -25 5 -25 25 0 20 5 25 25 25 21 0 25 5 25 30 0 27 3 30 30 30 30 0 30 -1 30 -55 0 -54 0 -55 30 -55 27 0 30 -3 30 -30 l0 -30 60 0 60 0 0 -30 c0 -27 -3 -30 -30 -30 -27 0 -30 -3 -30 -30 l0 -30 60 0 60 0 0 -30 0 -30 -60 0 -60 0 0 -30 0 -30 90 0 90 0 0 30 c0 30 1 30 55 30 l55 0 0 90 c0 89 0 90 -24 90 -19 0 -25 6 -28 28 -2 21 -9 28 -30 30 -27 3 -28 6 -28 58 0 53 0 54 30 54 27 0 30 -3 30 -30 0 -25 4 -30 25 -30 24 0 25 3 25 60 l0 60 -55 0 c-54 0 -55 0 -55 -30 0 -27 -3 -30 -29 -30 -25 0 -30 -4 -33 -28 -3 -26 -6 -27 -60 -30 -54 -3 -58 -5 -58 -27 0 -21 -5 -25 -30 -25 l-30 0 0 85 0 85 -30 0 -30 0 0 60 0 60 30 0 c27 0 30 3 30 30 0 27 3 30 30 30 27 0 30 -3 30 -30 l0 -30 60 0 60 0 0 -30 0 -30 -60 0 -60 0 0 -30 0 -30 60 0 60 0 0 30 c0 27 3 30 30 30 27 0 30 3 30 30 0 27 3 30 30 30 27 0 30 3 30 30 0 25 4 30 25 30 24 0 25 -3 25 -60 l0 -60 30 0 30 0 0 -115 0 -115 60 0 60 0 0 -60 0 -60 30 0 c27 0 30 -3 30 -30 0 -27 -3 -30 -30 -30 l-30 0 0 -60 0 -60 30 0 30 0 0 -61 c0 -60 0 -60 28 -57 21 2 28 9 30 30 3 21 9 27 30 30 21 2 28 9 30 31 3 21 9 27 28 27 20 0 24 5 24 30 0 25 -4 30 -25 30 -21 0 -25 -5 -25 -30 0 -27 -3 -30 -30 -30 l-30 0 0 90 0 90 -30 0 c-27 0 -30 3 -30 30 l0 30 61 0 c60 0 60 0 57 28 -3 26 -6 27 -60 30 -54 3 -58 5 -58 27 0 22 -4 24 -57 27 -55 3 -58 5 -61 30 l-3 27 118 3 118 3 3 28 c3 21 9 27 27 27 18 0 24 -6 27 -27 2 -22 9 -29 30 -31 21 -3 27 -9 30 -30 2 -21 9 -28 31 -30 21 -3 27 -9 27 -27 0 -18 -6 -24 -27 -27 -22 -2 -29 -9 -31 -30 -3 -21 -9 -27 -30 -30 -25 -3 -27 -6 -30 -61 l-3 -57 31 0 c27 0 30 3 30 30 l0 30 60 0 60 0 0 30 c0 27 -3 30 -30 30 -27 0 -30 3 -30 30 0 27 3 30 30 30 30 0 30 1 30 55 0 54 0 55 -30 55 -27 0 -30 3 -30 30 0 27 3 30 30 30 l30 0 0 60 0 60 -30 0 c-27 0 -30 -3 -30 -30 l0 -31 -57 3 c-55 3 -58 4 -61 31 -3 21 -9 27 -28 27 -20 0 -24 5 -24 30 0 25 4 30 25 30 21 0 25 5 25 30 0 30 -1 30 -55 30 -54 0 -55 0 -55 30 l0 30 85 0 c84 0 85 0 85 25 0 21 5 25 30 25 25 0 30 -4 30 -25 0 -21 5 -25 30 -25 30 0 30 1 30 55 l0 55 -60 0 -60 0 0 30 c0 27 -3 30 -30 30 -27 0 -30 3 -30 30 l0 30 60 0 60 0 0 -30 c0 -27 3 -30 30 -30 27 0 30 3 30 30 0 27 -3 30 -30 30 l-30 0 0 90 0 90 30 0 c30 0 30 1 30 54 0 52 -1 55 -27 58 -22 2 -29 9 -31 31 -3 24 0 27 27 27 28 0 31 3 31 30 0 27 -3 30 -30 30 -27 0 -30 -3 -30 -30 0 -27 -3 -30 -30 -30 -27 0 -30 3 -30 30 0 30 -1 30 -54 30 -52 0 -55 -1 -58 -27 -2 -22 -9 -29 -30 -31 -25 -3 -28 0 -28 27 l0 31 -120 0 -120 0 0 -30 c0 -27 -3 -30 -30 -30 -27 0 -30 3 -30 30 0 25 -4 30 -25 30 -21 0 -25 -5 -25 -30 0 -27 -3 -30 -30 -30 l-30 0 0 90 0 90 -30 0 c-27 0 -30 -3 -30 -30 0 -27 -3 -30 -30 -30 l-30 0 0 90 0 90 30 0 c25 0 30 4 30 25 0 24 -3 25 -60 25 l-60 0 0 90 0 90 -60 0 -60 0 0 -60 0 -60 -85 0 -85 0 0 29 c0 25 4 30 28 33 21 2 28 9 30 31 3 24 0 27 -27 27 -28 0 -31 -3 -31 -30 0 -27 -3 -30 -30 -30 -27 0 -30 3 -30 30 0 27 -3 30 -30 30 -27 0 -30 -3 -30 -30 l0 -30 -60 0 -60 0 0 30 0 30 -60 0 -61 0 3 -57 3 -58 118 -3 117 -3 0 31 c0 27 3 30 30 30 l30 0 0 -60 0 -60 -120 0 -120 0 0 -25 c0 -21 -5 -25 -30 -25 -25 0 -30 4 -30 25 0 20 -5 25 -25 25 -20 0 -25 -5 -25 -25 0 -21 -5 -25 -30 -25 -25 0 -30 4 -30 25 0 21 -5 25 -30 25 -25 0 -30 -4 -30 -25 0 -24 -2 -24 -87 -27 -88 -3 -88 -3 -91 -30 -3 -24 -8 -28 -33 -28 -26 0 -29 3 -29 30 0 30 -1 30 -55 30 -52 0 -55 1 -55 25 0 20 5 25 25 25 21 0 25 5 25 30 0 25 -4 30 -25 30 -24 0 -25 3 -25 60 l0 60 -60 0 -60 0 0 -30z m120 -120 c0 -27 -3 -30 -30 -30 -27 0 -30 3 -30 30 0 27 3 30 30 30 27 0 30 -3 30 -30z m1110 0 c0 -27 3 -30 30 -30 l30 0 0 -145 0 -145 -60 0 -60 0 0 -60 0 -60 30 0 c27 0 30 3 30 30 l0 30 60 0 60 0 0 30 c0 27 3 30 30 30 27 0 30 -3 30 -30 0 -27 3 -30 30 -30 l30 0 0 -114 0 -115 28 -3 c21 -2 28 -9 30 -30 3 -22 9 -28 28 -28 23 0 24 3 24 60 0 57 -1 60 -25 60 -21 0 -25 5 -25 30 0 25 4 30 25 30 20 0 25 5 25 25 0 20 -5 25 -25 25 -21 0 -25 5 -25 30 0 25 4 30 25 30 21 0 25 -5 25 -30 0 -27 3 -30 30 -30 25 0 30 -4 30 -25 0 -21 -5 -25 -30 -25 -27 0 -30 -3 -30 -30 l0 -30 90 0 90 0 0 30 c0 27 -3 30 -30 30 -25 0 -30 4 -30 25 0 21 5 25 30 25 27 0 30 3 30 30 0 27 3 30 30 30 30 0 30 -1 30 -55 0 -54 0 -55 30 -55 25 0 30 4 30 25 0 24 3 25 55 25 54 0 55 0 55 30 0 27 3 30 30 30 27 0 30 -3 30 -30 0 -27 -3 -30 -30 -30 -25 0 -30 -4 -30 -25 0 -21 5 -25 30 -25 l30 0 0 -60 0 -60 -30 0 c-27 0 -30 -3 -30 -30 0 -30 -1 -30 -55 -30 -54 0 -55 0 -55 -30 0 -27 3 -30 30 -30 27 0 30 -3 30 -30 0 -25 4 -30 24 -30 19 0 25 -6 28 -27 2 -22 9 -29 31 -31 23 -3 27 -8 27 -33 0 -29 -1 -29 -55 -29 l-55 0 0 60 0 60 -30 0 c-27 0 -30 3 -30 30 0 27 -3 30 -30 30 l-30 0 0 -60 0 -60 31 0 c27 0 30 -3 27 -27 -2 -22 -9 -29 -30 -31 -27 -3 -28 -6 -28 -58 l0 -54 -60 0 -60 0 0 31 c0 27 -3 30 -27 27 -22 -2 -29 -9 -31 -30 -3 -27 -6 -28 -58 -28 -53 0 -54 0 -54 -30 0 -27 -3 -30 -30 -30 -27 0 -30 3 -30 30 0 27 -3 30 -30 30 -27 0 -30 -3 -30 -30 l0 -30 -60 0 -60 0 0 30 0 30 60 0 60 0 0 55 c0 54 0 55 -30 55 -27 0 -30 3 -30 30 0 27 3 30 30 30 27 0 30 3 30 30 l0 30 -60 0 -60 0 0 -85 0 -85 -30 0 c-30 0 -30 1 -30 55 0 54 0 55 -30 55 l-30 0 0 -115 0 -115 -30 0 -30 0 0 60 c0 57 -1 60 -25 60 -24 0 -25 -3 -25 -60 l0 -60 -30 0 -30 0 0 85 0 85 -30 0 c-30 0 -30 -1 -30 -55 0 -54 0 -55 -30 -55 -27 0 -30 3 -30 30 l0 31 -57 -3 c-55 -3 -58 -4 -61 -30 -3 -24 -8 -28 -33 -28 -26 0 -29 3 -29 30 0 27 -3 30 -30 30 -27 0 -30 -3 -30 -30 0 -25 -4 -30 -25 -30 -21 0 -25 -5 -25 -30 0 -27 -3 -30 -30 -30 -27 0 -30 -3 -30 -30 0 -27 3 -30 30 -30 l31 0 -3 -57 c-3 -55 -4 -58 -30 -61 -25 -3 -28 0 -28 27 0 28 -3 31 -30 31 -27 0 -30 3 -30 30 0 27 -3 30 -30 30 l-30 0 0 -90 0 -90 90 0 90 0 0 -30 c0 -25 4 -30 25 -30 20 0 25 -5 25 -25 0 -21 5 -25 30 -25 30 0 30 1 30 54 0 52 -1 55 -27 58 -28 3 -28 3 -31 91 l-3 87 31 0 30 0 0 -90 0 -90 60 0 60 0 0 -30 c0 -27 3 -30 30 -30 27 0 30 3 30 30 l0 30 61 0 c60 0 60 0 57 -28 -3 -26 -6 -27 -60 -30 -54 -3 -58 -5 -58 -27 0 -22 4 -24 58 -27 l57 -3 3 -87 3 -88 29 0 c27 0 30 -3 30 -30 0 -27 -3 -30 -30 -30 -27 0 -30 -3 -30 -30 0 -30 1 -30 55 -30 54 0 55 0 55 30 0 27 3 30 30 30 27 0 30 -3 30 -30 0 -27 -3 -30 -30 -30 -27 0 -30 -3 -30 -30 0 -25 -4 -30 -25 -30 -21 0 -25 -5 -25 -30 l0 -30 85 0 c84 0 85 0 85 -25 0 -22 -4 -24 -57 -27 -55 -3 -58 -4 -61 -31 -3 -21 -9 -27 -28 -27 -23 0 -24 -3 -24 -60 0 -57 1 -60 25 -60 21 0 25 -5 25 -30 0 -27 3 -30 30 -30 27 0 30 -3 30 -30 0 -27 -3 -30 -30 -30 -27 0 -30 -3 -30 -30 0 -30 -1 -30 -55 -30 -54 0 -55 0 -55 29 0 25 4 30 28 33 26 3 27 6 30 60 l3 58 -31 0 -30 0 0 60 0 60 -60 0 -60 0 0 30 0 30 60 0 60 0 0 55 c0 54 0 55 -29 55 -25 0 -30 -4 -33 -27 -2 -22 -9 -29 -30 -31 -25 -3 -28 0 -28 27 0 28 3 31 30 31 27 0 30 3 30 30 l0 30 -60 0 -60 0 0 30 c0 27 3 30 30 30 27 0 30 3 30 30 0 27 3 30 30 30 l30 0 0 60 0 60 -30 0 c-27 0 -30 -3 -30 -30 0 -27 -3 -30 -30 -30 -27 0 -30 3 -30 30 0 27 -3 30 -30 30 -27 0 -30 3 -30 30 0 27 -3 30 -30 30 -27 0 -30 -3 -30 -30 0 -27 -3 -30 -30 -30 -27 0 -30 -3 -30 -30 0 -25 -4 -30 -25 -30 -21 0 -25 5 -25 30 0 27 -3 30 -30 30 -27 0 -30 -3 -30 -30 0 -27 -3 -30 -30 -30 -27 0 -30 -3 -30 -30 l0 -30 -60 0 -60 0 0 -30 c0 -27 3 -30 30 -30 l30 0 0 -60 0 -60 30 0 c27 0 30 -3 30 -30 0 -27 3 -30 30 -30 l30 0 0 60 0 60 -30 0 c-27 0 -30 3 -30 30 0 27 3 30 30 30 27 0 30 3 30 30 0 27 3 30 30 30 27 0 30 -3 30 -30 0 -25 4 -30 25 -30 21 0 25 5 25 30 0 27 3 30 30 30 27 0 30 3 30 30 0 27 3 30 30 30 l30 0 0 -120 0 -120 30 0 c30 0 30 -1 30 -55 l0 -54 -57 -3 -58 -3 -3 -87 -3 -88 -29 0 c-27 0 -30 3 -30 30 0 30 -1 30 -55 30 -54 0 -55 0 -55 30 l0 30 -90 0 -90 0 0 -30 0 -30 -115 0 -115 0 0 30 c0 27 -3 30 -30 30 -30 0 -30 1 -30 55 0 54 0 55 30 55 30 0 30 -1 30 -55 0 -52 2 -55 24 -55 19 0 25 6 28 27 3 27 6 28 61 31 53 3 57 5 57 27 0 22 -4 24 -57 27 -55 3 -58 4 -61 31 l-3 27 -115 0 -114 0 0 -30 c0 -27 -3 -30 -30 -30 -27 0 -30 3 -30 30 0 27 -3 30 -30 30 l-30 0 0 60 0 60 -55 0 c-54 0 -55 0 -55 30 0 25 4 30 25 30 21 0 25 5 25 30 0 27 3 30 30 30 27 0 30 3 30 30 0 27 3 30 30 30 27 0 30 3 30 30 0 27 -3 30 -30 30 -25 0 -30 4 -30 25 0 21 5 25 30 25 27 0 30 3 30 30 0 27 3 30 30 30 27 0 30 -3 30 -30 0 -27 -3 -30 -30 -30 -25 0 -30 -4 -30 -25 0 -21 5 -25 30 -25 27 0 30 -3 30 -30 0 -27 3 -30 30 -30 27 0 30 -3 30 -30 l0 -30 84 0 85 0 3 28 c3 26 6 27 61 30 56 3 57 4 57 32 0 27 -3 30 -30 30 -25 0 -30 4 -30 25 0 21 5 25 30 25 25 0 30 -4 30 -25 0 -24 3 -25 60 -25 l60 0 0 55 c0 54 0 55 -30 55 -27 0 -30 3 -30 30 l0 30 -60 0 -60 0 0 -30 c0 -27 -3 -30 -30 -30 -30 0 -30 -1 -30 -55 0 -52 -1 -55 -25 -55 -21 0 -25 -5 -25 -30 0 -27 -3 -30 -30 -30 l-30 0 0 84 0 85 28 3 c21 2 28 9 30 31 3 24 0 27 -27 27 l-31 0 0 60 0 60 30 0 c27 0 30 3 30 30 0 25 4 30 24 30 19 0 25 6 28 28 3 25 6 27 60 30 53 3 57 5 60 30 3 25 6 27 61 30 l57 3 0 84 0 85 -30 0 -30 0 0 -60 0 -60 -60 0 c-57 0 -60 -1 -60 -25 0 -24 -3 -25 -55 -25 -54 0 -55 0 -55 -30 0 -27 -3 -30 -30 -30 -27 0 -30 3 -30 30 0 27 3 30 30 30 25 0 30 4 30 25 0 21 -5 25 -30 25 -27 0 -30 3 -30 30 l0 30 -60 0 -60 0 0 -30 c0 -27 -3 -30 -30 -30 -27 0 -30 3 -30 30 0 27 -3 30 -30 30 -27 0 -30 3 -30 30 0 30 -1 30 -55 30 -54 0 -55 0 -55 30 l0 30 115 0 115 0 0 30 c0 27 -3 30 -30 30 -27 0 -30 3 -30 30 0 27 -3 30 -30 30 -27 0 -30 -3 -30 -30 0 -27 -3 -30 -30 -30 l-30 0 0 60 0 60 60 0 60 0 0 30 c0 27 3 30 30 30 27 0 30 -3 30 -30 0 -28 1 -29 58 -32 54 -3 57 -4 60 -30 3 -24 8 -28 33 -28 29 0 29 0 29 60 0 57 1 60 25 60 24 0 25 3 25 55 0 52 -2 55 -24 55 -19 0 -25 -6 -28 -27 -2 -22 -9 -29 -31 -31 -24 -3 -27 0 -27 27 0 28 -3 31 -30 31 -27 0 -30 3 -30 30 0 27 3 30 30 30 l30 0 0 60 0 60 30 0 c27 0 30 3 30 30 0 30 1 30 55 30 l55 0 0 -60 0 -60 30 0 30 0 0 60 0 60 90 0 90 0 0 30 c0 27 3 30 30 30 27 0 30 -3 30 -30 0 -27 -3 -30 -30 -30 l-30 0 0 -90 0 -90 -30 0 -30 0 0 60 0 60 -30 0 -30 0 0 -90 0 -90 -31 0 c-27 0 -30 -3 -27 -27 2 -22 9 -29 30 -31 22 -3 28 -9 28 -28 0 -20 5 -24 30 -24 30 0 30 1 30 55 0 54 0 55 30 55 27 0 30 -3 30 -31 0 -27 3 -30 28 -27 l27 3 3 118 3 117 29 0 c30 0 30 0 30 60 0 57 1 60 25 60 24 0 25 -3 25 -60 l0 -60 30 0 c27 0 30 -3 30 -30 0 -27 -3 -30 -30 -30 l-30 0 0 -60 0 -60 30 0 c27 0 30 -3 30 -30 0 -27 3 -30 30 -30 27 0 30 3 30 30 l0 29 148 3 147 3 3 28 c3 24 0 27 -27 27 l-31 0 0 61 c0 60 0 60 28 57 21 -2 28 -9 30 -30 3 -22 9 -28 28 -28 l24 0 0 115 0 115 30 0 c27 0 30 3 30 30 0 27 3 30 30 30 27 0 30 -3 30 -30z m-170 -85 c0 -54 0 -55 -29 -55 -25 0 -30 4 -33 28 -2 21 -9 28 -30 30 -22 3 -28 9 -28 28 0 23 3 24 60 24 l60 0 0 -55z m-120 -145 l0 -90 -90 0 -90 0 0 90 0 90 90 0 90 0 0 -90z m-1120 -760 c0 -27 -3 -30 -30 -30 -25 0 -30 4 -30 23 0 30 7 37 37 37 19 0 23 -5 23 -30z m178 -2 c3 -28 3 -28 -57 -28 -57 0 -61 1 -61 23 0 34 8 38 65 35 46 -3 50 -5 53 -30z m-290 -120 c3 -25 0 -28 -27 -28 -28 0 -31 3 -31 31 0 27 3 30 28 27 21 -2 28 -9 30 -30z m292 -58 l0 -90 -90 0 -90 0 0 90 0 90 90 0 90 0 0 -90z m940 0 l0 -90 -90 0 -90 0 0 90 0 90 90 0 90 0 0 -90z m940 0 l0 -90 -90 0 -90 0 0 90 0 90 90 0 90 0 0 -90z m-770 -60 c0 -89 0 -90 -25 -90 -24 0 -25 3 -25 60 l0 60 -30 0 c-27 0 -30 3 -30 30 0 30 1 30 55 30 l55 0 0 -90z m-1350 0 c0 -30 -1 -30 -55 -30 -54 0 -55 0 -55 30 0 30 1 30 55 30 54 0 55 0 55 -30z m1710 -230 c0 -27 3 -30 30 -30 l30 0 0 -60 0 -60 -60 0 -60 0 0 30 c0 27 3 30 30 30 27 0 30 3 30 30 0 27 -3 30 -30 30 -27 0 -30 3 -30 30 0 27 3 30 30 30 27 0 30 -3 30 -30z m-1820 -180 c0 -27 -3 -30 -30 -30 -27 0 -30 3 -30 30 0 27 3 30 30 30 27 0 30 -3 30 -30z m1930 -290 c0 -27 3 -30 30 -30 27 0 30 -3 30 -30 0 -27 -3 -30 -30 -30 -27 0 -30 3 -30 30 0 25 -4 30 -25 30 -21 0 -25 5 -25 30 0 25 4 30 25 30 21 0 25 -5 25 -30z m-640 -180 l0 -90 -90 0 -90 0 0 90 0 90 90 0 90 0 0 -90z m940 0 l0 -90 -90 0 -90 0 0 90 0 90 90 0 90 0 0 -90z m-240 -60 c0 -27 -3 -30 -30 -30 -27 0 -30 3 -30 30 0 27 3 30 30 30 27 0 30 -3 30 -30z m-820 -115 c0 -21 -5 -25 -30 -25 -25 0 -30 4 -30 25 0 21 5 25 30 25 25 0 30 -4 30 -25z m530 1 c0 -19 6 -25 28 -28 21 -2 28 -9 30 -30 l3 -28 -90 0 -91 0 0 55 0 55 60 0 c57 0 60 -1 60 -24z m640 -86 l0 -60 -55 0 c-54 0 -55 0 -55 30 0 27 3 30 30 30 27 0 30 3 30 30 0 25 4 30 25 30 24 0 25 -3 25 -60z"/>
<path d="M1720 2485 c0 -54 0 -55 30 -55 30 0 30 1 30 55 0 54 0 55 -30 55 -30 0 -30 -1 -30 -55z"/>
<path d="M670 2310 c0 -57 1 -60 25 -60 21 0 25 -5 25 -30 l0 -30 60 0 60 0 0 30 0 30 -60 0 -60 0 0 60 c0 57 -1 60 -25 60 -24 0 -25 -3 -25 -60z"/>
<path d="M1140 2340 c0 -25 4 -30 25 -30 21 0 25 5 25 30 0 25 -4 30 -25 30 -21 0 -25 -5 -25 -30z"/>
<path d="M1720 2340 c0 -27 3 -30 30 -30 27 0 30 3 30 30 0 27 -3 30 -30 30 -27 0 -30 -3 -30 -30z"/>
<path d="M1140 2135 l0 -55 -60 0 -60 0 0 -30 0 -30 60 0 60 0 0 -30 0 -30 -60 0 -60 0 0 -30 c0 -27 3 -30 30 -30 l30 0 0 -60 0 -60 -30 0 c-27 0 -30 -3 -30 -30 0 -27 3 -30 30 -30 27 0 30 3 30 30 0 27 3 30 30 30 27 0 30 -3 30 -30 0 -25 4 -30 25 -30 21 0 25 -5 25 -30 0 -30 -1 -30 -55 -30 -52 0 -55 -1 -55 -25 0 -24 3 -25 55 -25 52 0 55 1 55 25 0 21 5 25 30 25 27 0 30 3 30 30 0 27 3 30 29 30 25 0 30 -4 33 -27 3 -28 3 -28 91 -31 l87 -3 0 31 c0 27 -3 30 -30 30 -27 0 -30 3 -30 30 l0 30 60 0 60 0 0 -31 c0 -27 3 -30 28 -27 21 2 28 9 30 31 3 24 0 27 -27 27 -28 0 -31 3 -31 30 0 27 3 30 30 30 27 0 30 3 30 30 0 25 4 30 25 30 22 0 24 -4 27 -57 l3 -58 88 -3 87 -3 0 31 0 30 60 0 60 0 0 -30 c0 -27 3 -30 30 -30 27 0 30 -3 30 -30 0 -27 -3 -30 -30 -30 -27 0 -30 -3 -30 -30 0 -27 3 -30 30 -30 30 0 30 -1 30 -55 0 -54 0 -55 30 -55 27 0 30 3 30 30 0 25 4 30 25 30 20 0 25 5 25 25 0 25 1 25 90 25 l90 0 0 30 c0 27 -3 30 -30 30 -27 0 -30 3 -30 30 0 27 3 30 30 30 l30 0 0 60 0 60 30 0 c27 0 30 3 30 30 l0 30 85 0 85 0 0 30 0 30 -85 0 -85 0 0 -30 c0 -27 -3 -30 -30 -30 -27 0 -30 -3 -30 -30 0 -27 -3 -30 -30 -30 -27 0 -30 3 -30 30 0 27 -3 30 -30 30 l-30 0 0 -120 0 -120 -30 0 c-27 0 -30 3 -30 30 0 30 -1 30 -55 30 -54 0 -55 0 -55 30 0 27 3 30 30 30 27 0 30 3 30 30 0 27 -3 30 -30 30 -27 0 -30 3 -30 30 0 27 -3 30 -30 30 l-30 0 0 115 0 115 -30 0 c-27 0 -30 -3 -30 -30 l0 -30 -60 0 c-57 0 -60 -1 -60 -25 0 -21 -5 -25 -30 -25 -25 0 -30 4 -30 25 0 24 -3 25 -55 25 -52 0 -55 -1 -55 -25 0 -24 -3 -25 -60 -25 l-60 0 0 -30 0 -30 -60 0 -60 0 0 -30 0 -30 -60 0 -60 0 0 30 c0 30 -1 30 -55 30 -54 0 -55 0 -55 30 0 30 1 30 55 30 52 0 55 2 55 24 0 19 -6 25 -27 28 -22 2 -29 9 -31 31 -3 21 -9 27 -28 27 -22 0 -24 -3 -24 -55z m520 -145 l0 -30 -85 0 -85 0 0 -30 c0 -27 3 -30 30 -30 27 0 30 -3 30 -30 0 -27 -3 -30 -30 -30 -27 0 -30 3 -30 30 l0 30 -60 0 -60 0 0 -30 c0 -27 3 -30 30 -30 27 0 30 -3 30 -30 0 -27 -3 -30 -30 -30 -27 0 -30 3 -30 30 0 27 -3 30 -30 30 -27 0 -30 3 -30 30 0 27 3 30 30 30 27 0 30 3 30 30 l0 30 60 0 60 0 0 30 0 30 85 0 85 0 0 -30z m240 0 c0 -27 3 -30 30 -30 27 0 30 -3 30 -30 0 -27 3 -30 30 -30 27 0 30 -3 30 -30 0 -27 -3 -30 -30 -30 -27 0 -30 3 -30 30 0 27 -3 30 -30 30 -27 0 -30 3 -30 30 0 27 -3 30 -30 30 -27 0 -30 -3 -30 -30 0 -27 -3 -30 -30 -30 -27 0 -30 -3 -30 -30 0 -27 -3 -30 -30 -30 -27 0 -30 3 -30 30 0 27 3 30 30 30 27 0 30 3 30 30 0 27 -3 30 -30 30 -25 0 -30 4 -30 23 0 13 3 27 7 30 3 4 44 7 90 7 l83 0 0 -30z m-650 -150 l0 -120 -30 0 c-27 0 -30 3 -30 30 0 25 -4 30 -25 30 -25 0 -25 1 -25 90 l0 90 55 0 55 0 0 -120z m880 -150 c0 -30 -1 -30 -55 -30 -54 0 -55 0 -55 30 0 30 1 30 55 30 54 0 55 0 55 -30z"/>
<path d="M1310 2105 c0 -24 3 -25 60 -25 57 0 60 1 60 25 0 24 -3 25 -60 25 -57 0 -60 -1 -60 -25z"/>
<path d="M430 1990 c0 -27 3 -30 30 -30 27 0 30 -3 30 -30 0 -27 3 -30 30 -30 27 0 30 -3 30 -30 0 -27 -3 -30 -30 -30 -27 0 -30 -3 -30 -30 0 -27 -3 -30 -30 -30 -27 0 -30 -3 -30 -30 0 -27 3 -30 30 -30 27 0 30 3 30 30 0 27 3 30 30 30 27 0 30 3 30 30 0 27 3 30 30 30 27 0 30 -3 30 -30 0 -27 3 -30 30 -30 l30 0 0 -60 c0 -57 1 -60 25 -60 21 0 25 5 25 30 l0 30 60 0 60 0 0 60 0 60 -30 0 c-27 0 -30 3 -30 30 0 27 3 30 30 30 27 0 30 3 30 30 l0 30 60 0 60 0 0 30 0 30 -60 0 c-60 0 -60 0 -60 -30 0 -28 -1 -29 -57 -32 l-58 -3 -3 -57 -3 -58 -54 0 -55 0 0 60 0 60 -60 0 -60 0 0 30 c0 27 -3 30 -30 30 -27 0 -30 -3 -30 -30z m350 -181 c0 -27 -3 -30 -27 -27 -22 2 -29 9 -31 31 -3 24 0 27 27 27 28 0 31 -3 31 -31z"/>
<path d="M900 1870 c0 -27 3 -30 30 -30 27 0 30 3 30 30 0 27 -3 30 -30 30 -27 0 -30 -3 -30 -30z"/>
<path d="M840 1490 l0 -59 -57 -3 c-55 -3 -58 -4 -61 -30 -3 -22 -9 -28 -28 -28 -20 0 -24 -5 -24 -30 0 -30 1 -30 55 -30 54 0 55 0 55 30 l0 30 60 0 60 0 0 60 0 60 30 0 c27 0 30 3 30 30 l0 30 -60 0 -60 0 0 -60z"/>
<path d="M1140 1110 c0 -25 4 -30 25 -30 21 0 25 5 25 30 0 25 -4 30 -25 30 -21 0 -25 -5 -25 -30z"/>
<path d="M1370 1110 c0 -27 3 -30 30 -30 27 0 30 3 30 30 0 27 -3 30 -30 30 -27 0 -30 -3 -30 -30z"/>
<path d="M430 1050 c0 -27 3 -30 30 -30 27 0 30 -3 30 -30 0 -27 -3 -30 -30 -30 -27 0 -30 -3 -30 -30 0 -27 3 -30 30 -30 27 0 30 -3 30 -30 0 -27 -3 -30 -30 -30 -27 0 -30 -3 -30 -30 0 -27 3 -30 30 -30 27 0 30 3 30 30 l0 29 88 3 c87 3 87 3 90 31 3 21 9 27 28 27 23 0 24 -3 24 -60 l0 -60 30 0 c27 0 30 3 30 30 0 27 3 30 30 30 l30 0 0 -60 0 -60 30 0 30 0 0 60 0 60 -30 0 -30 0 0 60 0 60 -30 0 c-27 0 -30 3 -30 30 0 27 -3 30 -30 30 -27 0 -30 -3 -30 -30 0 -30 -1 -30 -55 -30 -54 0 -55 0 -55 -30 0 -27 -3 -30 -30 -30 l-30 0 0 60 0 60 -30 0 c-27 0 -30 3 -30 30 0 27 -3 30 -30 30 -27 0 -30 -3 -30 -30z m350 -120 c0 -27 -3 -30 -30 -30 -27 0 -30 3 -30 30 0 27 3 30 30 30 27 0 30 -3 30 -30z"/>
<path d="M900 1050 l0 -30 60 0 60 0 0 30 0 30 -60 0 -60 0 0 -30z"/>
<path d="M1252 753 c2 -22 9 -29 31 -31 24 -3 27 0 27 27 0 28 -3 31 -31 31 -27 0 -30 -3 -27 -27z"/>
<path d="M1080 695 c0 -24 3 -25 55 -25 52 0 55 1 55 25 0 24 -3 25 -55 25 -52 0 -55 -1 -55 -25z"/>
<path d="M1550 641 c0 -28 3 -31 31 -31 27 0 30 3 27 28 -2 21 -9 28 -30 30 -25 3 -28 0 -28 -27z"/>
<path d="M1370 2340 c0 -27 3 -30 30 -30 27 0 30 3 30 30 0 27 -3 30 -30 30 -27 0 -30 -3 -30 -30z"/>
<path d="M430 1400 c0 -27 3 -30 30 -30 27 0 30 3 30 30 0 27 -3 30 -30 30 -27 0 -30 -3 -30 -30z"/>
<path d="M1370 1400 c0 -27 3 -30 30 -30 27 0 30 3 30 30 0 27 -3 30 -30 30 -27 0 -30 -3 -30 -30z"/>
<path d="M2310 1400 c0 -27 3 -30 30 -30 27 0 30 3 30 30 0 27 -3 30 -30 30 -27 0 -30 -3 -30 -30z"/>
<path d="M1370 460 c0 -27 3 -30 30 -30 27 0 30 3 30 30 0 27 -3 30 -30 30 -27 0 -30 -3 -30 -30z"/>
<path d="M2310 460 c0 -27 3 -30 30 -30 27 0 30 3 30 30 0 27 -3 30 -30 30 -27 0 -30 -3 -30 -30z"/>
<path d="M900 2690 l0 -30 -61 0 c-60 0 -60 0 -57 -27 l3 -28 175 0 175 0 3 58 3 57 -121 0 -120 0 0 -30z"/>
<path d="M1900 2660 l0 -61 58 3 57 3 3 58 3 57 -61 0 -60 0 0 -60z"/>
<path d="M2190 2690 c0 -27 -3 -30 -30 -30 l-30 0 0 -85 0 -85 -55 0 c-54 0 -55 0 -55 -30 l0 -30 115 0 115 0 0 54 c0 52 -1 55 -27 58 -27 3 -28 6 -31 61 l-3 57 31 0 c27 0 30 3 30 30 0 27 -3 30 -30 30 -27 0 -30 -3 -30 -30z"/>
<path d="M2310 2515 l0 -205 205 0 205 0 0 205 0 205 -205 0 -205 0 0 -205z m350 0 l0 -145 -145 0 -145 0 0 145 0 145 145 0 145 0 0 -145z"/>
<path d="M2430 2515 l0 -85 85 0 85 0 0 85 0 85 -85 0 -85 0 0 -85z"/>
<path d="M2080 2340 c0 -25 4 -30 25 -30 21 0 25 5 25 30 0 25 -4 30 -25 30 -21 0 -25 -5 -25 -30z"/>
<path d="M2190 2340 c0 -27 3 -30 30 -30 27 0 30 3 30 30 0 27 -3 30 -30 30 -27 0 -30 -3 -30 -30z"/>
<path d="M80 2220 c0 -27 3 -30 31 -30 27 0 30 -3 27 -27 -2 -22 -9 -29 -30 -31 -22 -3 -28 -9 -28 -27 0 -18 6 -24 28 -27 21 -2 28 -9 30 -30 3 -24 8 -28 33 -28 l29 0 0 115 0 115 -60 0 -60 0 0 -30z"/>
<path d="M260 2220 c0 -25 4 -30 24 -30 19 0 25 -6 28 -27 2 -22 9 -29 31 -31 24 -3 27 0 27 27 0 28 -3 31 -30 31 -27 0 -30 3 -30 30 0 25 -4 30 -25 30 -21 0 -25 -5 -25 -30z"/>
<path d="M80 1930 c0 -27 3 -30 30 -30 27 0 30 3 30 30 0 27 -3 30 -30 30 -27 0 -30 -3 -30 -30z"/>
<path d="M2607 1543 c-4 -3 -7 -17 -7 -30 0 -19 5 -23 30 -23 27 0 30 3 30 30 0 25 -4 30 -23 30 -13 0 -27 -3 -30 -7z"/>
<path d="M2190 930 l0 -90 30 0 30 0 0 90 0 90 -30 0 -30 0 0 -90z"/>
<path d="M2660 930 c0 -27 3 -30 30 -30 27 0 30 3 30 30 0 27 -3 30 -30 30 -27 0 -30 -3 -30 -30z"/>
<path d="M2252 753 c2 -22 9 -29 31 -31 24 -3 27 0 27 27 0 28 -3 31 -31 31 -27 0 -30 -3 -27 -27z"/>
<path d="M430 580 c0 -27 3 -30 30 -30 27 0 30 3 30 30 0 27 -3 30 -30 30 -27 0 -30 -3 -30 -30z"/>
<path d="M80 285 l0 -205 205 0 205 0 0 205 0 205 -205 0 -205 0 0 -205z m350 0 l0 -145 -145 0 -145 0 0 145 0 145 145 0 145 0 0 -145z"/>
<path d="M200 285 l0 -85 85 0 85 0 0 85 0 85 -85 0 -85 0 0 -85z"/>
<path d="M550 460 c0 -27 3 -30 30 -30 27 0 30 -3 30 -31 0 -27 3 -30 28 -27 21 2 28 9 30 31 3 24 0 27 -27 27 -28 0 -31 3 -31 30 0 27 -3 30 -30 30 -27 0 -30 -3 -30 -30z"/>
<path d="M2662 343 c2 -22 9 -29 31 -31 24 -3 27 0 27 27 0 28 -3 31 -31 31 -27 0 -30 -3 -27 -27z"/>
<path d="M550 285 c0 -21 5 -25 30 -25 27 0 30 -3 30 -30 0 -27 -3 -30 -30 -30 l-30 0 0 -60 0 -60 85 0 85 0 0 30 c0 27 3 30 30 30 27 0 30 3 30 31 0 27 -3 30 -27 27 -22 -2 -29 -9 -31 -30 -3 -22 -9 -28 -28 -28 -23 0 -24 3 -24 60 l0 60 85 0 c84 0 85 0 85 25 0 25 -1 25 -85 25 -84 0 -85 0 -85 -25 0 -21 -5 -25 -30 -25 -25 0 -30 4 -30 25 0 21 -5 25 -30 25 -25 0 -30 -4 -30 -25z"/>
<path d="M2667 253 c-4 -3 -7 -17 -7 -30 0 -19 5 -23 30 -23 27 0 30 3 30 30 0 25 -4 30 -23 30 -13 0 -27 -3 -30 -7z"/>
</g>
</svg>
