<svg xmlns="http://www.w3.org/2000/svg" width="326" height="90" viewBox="0 0 326 90" fill="none">
<mask id="mask0_35_214" style="mask-type:luminance" maskUnits="userSpaceOnUse" x="0" y="0" width="326" height="90">
<path d="M0 0H326V90H0V0Z" fill="white"/>
</mask>
<g mask="url(#mask0_35_214)">
<path fill-rule="evenodd" clip-rule="evenodd" d="M-0.0486315 79.3354C8.80795 89.9044 27.0871 92.9286 40.7787 86.0919C82.6342 65.1892 162.797 25.1572 162.797 25.1572C162.797 25.1572 242.963 65.1892 284.817 86.0919C298.508 92.9286 316.787 89.9044 325.646 79.3354C325.646 79.3337 325.646 79.3337 325.646 79.3337L170.82 2.01382C165.938 -0.423226 159.657 -0.423226 154.778 2.01382L-0.0508423 79.3337C-0.0508423 79.3337 -0.0508421 79.3337 -0.0486315 79.3354Z" fill="#D8EBF2"/>
</g>
</svg>
